<mxfile host="65bd71144e">
    <diagram id="HuhUC8r1bE9fZLHFmISH" name="Page-1">
        <mxGraphModel dx="1051" dy="1829" grid="1" gridSize="10" guides="1" tooltips="1" connect="1" arrows="1" fold="1" page="1" pageScale="1" pageWidth="850" pageHeight="1100" math="0" shadow="0">
            <root>
                <mxCell id="0"/>
                <mxCell id="1" parent="0"/>
                <mxCell id="2" value="Home Page" style="swimlane;" parent="1" vertex="1">
                    <mxGeometry x="170" y="-540" width="320" height="210" as="geometry">
                        <mxRectangle x="70" y="10" width="100" height="23" as="alternateBounds"/>
                    </mxGeometry>
                </mxCell>
                <mxCell id="3" value="&lt;h1&gt;Heading&lt;/h1&gt;&lt;p&gt;Lorem ipsum dolor sit amet, consectetur adipisicing elit, sed do eiusmod tempor incididunt ut labore et dolore magna aliqua.&lt;/p&gt;" style="text;html=1;strokeColor=none;fillColor=none;spacing=5;spacingTop=-20;whiteSpace=wrap;overflow=hidden;rounded=0;" parent="2" vertex="1">
                    <mxGeometry x="20" y="50" width="190" height="120" as="geometry"/>
                </mxCell>
                <mxCell id="4" value="Blood Test" style="rounded=1;whiteSpace=wrap;html=1;" parent="2" vertex="1">
                    <mxGeometry x="136" y="170" width="70" height="20" as="geometry"/>
                </mxCell>
                <mxCell id="5" value="Home&amp;nbsp; &amp;nbsp; About Us&amp;nbsp; &amp;nbsp; Contact Us&amp;nbsp; &amp;nbsp;Registration&amp;nbsp; &amp;nbsp;Login" style="rounded=1;whiteSpace=wrap;html=1;" parent="2" vertex="1">
                    <mxGeometry y="25" width="320" height="20" as="geometry"/>
                </mxCell>
            </root>
        </mxGraphModel>
    </diagram>
</mxfile>